#!OML:ASF X:\für Bonn\!DataBase\2005_08_12_Daniel\c3d\Daniel.ASF
:FULLY-SPECIFIED
:DEGREES
171
root 2.46727 17.6488 17.6527 -4.04228 22.357 0.835338
lowerback 7.11988 4.61875 4.3557
upperback 0.704266 6.3613 -7.91968
thorax -1.84758 3.20763 -11.4201
lowerneck 3.62618 -8.7094 -5.41401
upperneck 10.1391 -12.1597 5.81086
head 3.46283 -6.07606 2.57176
rclavicle 4.47266e-014 -8.42847e-014
rhumerus 64.8194 -28.3882 -84.7242
rradius 8.33239
rwrist 64.8697
rhand 3.32585 8.37053
rfingers 7.12502
rthumb 28.7719 -19.4322
lclavicle 4.47266e-014 -8.42847e-014
lhumerus -31.3214 33.0212 65.3494
lradius 17.033
lwrist -37.1536
lhand -9.54586 -8.25151
lfingers 7.12502
lthumb 16.4209 21.0735
rfemur 12.0996 14.4359 23.2193
rtibia 12.2146
rfoot -31.2958 -32.2553
rtoes -8.56357
lfemur -2.09805 -19.9033 -18.7555
ltibia 27.1575
lfoot -20.4347 3.08272
ltoes -15.7241
172
root 2.46737 17.6483 17.6515 -4.04508 22.3549 0.848046
lowerback 7.13002 4.61082 4.34736
upperback 0.70678 6.35007 -7.91237
thorax -1.85494 3.20156 -11.4074
lowerneck 3.6774 -8.6992 -5.4037
upperneck 10.0991 -12.1453 5.80749
head 3.4373 -6.06986 2.57251
rclavicle -1.82882e-014 4.45278e-014
rhumerus 64.825 -28.412 -84.7537
rradius 8.30025
rwrist 64.7725
rhand 3.23777 8.40017
rfingers 7.12502
rthumb 28.6877 -19.4169
lclavicle -1.82882e-014 4.45278e-014
lhumerus -31.2978 33.0429 65.3751
lradius 17.0065
lwrist -37.1929
lhand -9.52891 -8.22027
lfingers 7.12502
lthumb 16.4373 21.1033
rfemur 12.11 14.4445 23.2067
rtibia 12.2029
rfoot -31.2942 -32.258
rtoes -8.55113
lfemur -2.08768 -19.9669 -18.7881
ltibia 27.162
lfoot -20.4368 3.14988
ltoes -15.7237
173
root 2.46766 17.6481 17.6499 -4.07003 22.344 0.821078
lowerback 7.16319 4.61172 4.39116
upperback 0.695459 6.35456 -7.90068
thorax -1.88088 3.20178 -11.425
lowerneck 3.78196 -8.70563 -5.41602
upperneck 10.0199 -12.1551 5.81858
head 3.393 -6.07742 2.58426
rclavicle 7.45443e-015 3.18055e-015
rhumerus 64.7938 -28.4339 -84.7795
rradius 8.29495
rwrist 64.7105
rhand 3.19719 8.37196
rfingers 7.12502
rthumb 28.649 -19.4516
lclavicle 7.45443e-015 3.18055e-015
lhumerus -31.3321 33.1897 65.3027
lradius 16.9508
lwrist -37.4763
lhand -9.58392 -8.26276
lfingers 7.12502
lthumb 16.3843 21.0652
rfemur 12.1251 14.46 23.2409
rtibia 12.2024
rfoot -31.2976 -32.2653
rtoes -8.54783
lfemur -2.07576 -19.9607 -18.7667
ltibia 27.1654
lfoot -20.4368 3.15176
ltoes -15.7237
174
root 2.46819 17.6484 17.6488 -4.06263 22.3359 0.821935
lowerback 7.15332 4.61389 4.40333
upperback 0.698555 6.35859 -7.90563
thorax -1.86924 3.20456 -11.4366
lowerneck 3.7718 -8.72026 -5.34859
upperneck 10.01 -12.1704 5.78618
head 3.3844 -6.08326 2.56083
rclavicle 1.18476e-013 -8.5875e-014
rhumerus 64.8159 -28.4674 -84.8384
rradius 8.27604
rwrist 64.6791
rhand 3.19057 8.32721
rfingers 7.12502
rthumb 28.6426 -19.4974
lclavicle 1.18476e-013 -8.5875e-014
lhumerus -31.3041 33.307 65.2706
lradius 16.9
lwrist -37.6703
lhand -9.62314 -8.2643
lfingers 7.12502
lthumb 16.3465 21.0668
rfemur 12.1109 14.4614 23.2319
rtibia 12.2036
rfoot -31.2869 -32.2599
rtoes -8.55025
lfemur -2.08581 -19.9602 -18.768
ltibia 27.1659
lfoot -20.4335 3.16042
ltoes -15.7236
175
root 2.46808 17.6485 17.6472 -4.06963 22.3082 0.845215
lowerback 7.15305 4.62409 4.39048
upperback 0.718876 6.37222 -7.90401
thorax -1.8462 3.21347 -11.4262
lowerneck 3.80648 -8.73498 -5.31673
upperneck 9.95868 -12.1868 5.76525
head 3.35696 -6.09184 2.55018
rclavicle 5.36719e-015 5.40694e-014
rhumerus 64.8778 -28.4652 -84.9015
rradius 8.22143
rwrist 64.6405
rhand 3.05672 8.28966
rfingers 7.12502
rthumb 28.5148 -19.5565
lclavicle 5.36719e-015 5.40694e-014
lhumerus -31.2379 33.3515 65.3058
lradius 16.8778
lwrist -37.7938
lhand -9.57255 -8.23359
lfingers 7.12502
lthumb 16.3952 21.0935
rfemur 12.1221 14.5304 23.2257
rtibia 12.2093
rfoot -31.31 -32.2926
rtoes -8.53695
lfemur -2.06738 -19.9218 -18.8022
ltibia 27.1637
lfoot -20.425 3.18341
ltoes -15.8185
176
root 2.46786 17.6488 17.6467 -4.06069 22.2835 0.847426
lowerback 7.15643 4.62846 4.38507
upperback 0.692787 6.37644 -7.90529
thorax -1.87508 3.21317 -11.4269
lowerneck 3.90171 -8.73845 -5.29611
upperneck 9.90452 -12.1924 5.77172
head 3.32001 -6.09586 2.55408
rclavicle 1.09332e-014 -3.81667e-014
rhumerus 64.8323 -28.4817 -84.9427
rradius 8.23512
rwrist 64.6763
rhand 2.96523 8.2736
rfingers 7.12502
rthumb 28.4273 -19.5872
lclavicle 1.09332e-014 -3.81667e-014
lhumerus -31.2581 33.4586 65.2318
lradius 16.8063
lwrist -38.0042
lhand -9.56462 -8.18734
lfingers 7.12502
lthumb 16.4029 21.1391
rfemur 12.0997 14.544 23.2182
rtibia 12.2231
rfoot -31.3004 -32.2838
rtoes -8.5432
lfemur -2.07126 -19.9098 -18.8026
ltibia 27.1596
lfoot -20.4244 3.19637
ltoes -15.8184
177
root 2.46781 17.649 17.6454 -4.05918 22.254 0.848429
lowerback 7.14523 4.62723 4.36502
upperback 0.684331 6.37261 -7.89089
thorax -1.88261 3.21032 -11.398
lowerneck 3.9906 -8.72893 -5.2552
upperneck 9.83698 -12.1769 5.75076
head 3.27427 -6.08931 2.54601
rclavicle 3.4191e-014 -2.22639e-014
rhumerus 64.8297 -28.4589 -84.9897
rradius 8.22028
rwrist 64.6254
rhand 2.78876 8.20498
rfingers 7.12502
rthumb 28.2587 -19.6838
lclavicle 3.4191e-014 -2.22639e-014
lhumerus -31.2999 33.5607 65.2066
lradius 16.7992
lwrist -38.1327
lhand -9.62487 -8.17287
lfingers 7.12502
lthumb 16.3449 21.1584
rfemur 12.0806 14.5616 23.2123
rtibia 12.2428
rfoot -31.2933 -32.2726
rtoes -8.54799
lfemur -2.06479 -19.9045 -18.8083
ltibia 27.1531
lfoot -20.4459 3.22249
ltoes -15.9198
178
root 2.46772 17.6488 17.644 -4.07436 22.2492 0.83415
lowerback 7.12751 4.62475 4.36085
upperback 0.699449 6.36952 -7.87023
thorax -1.86046 3.21012 -11.3689
lowerneck 4.05612 -8.73571 -5.21026
upperneck 9.75148 -12.1823 5.73428
head 3.22809 -6.09268 2.53717
rclavicle -3.37934e-014 2.8625e-014
rhumerus 64.8823 -28.4404 -85.0437
rradius 8.15889
rwrist 64.5614
rhand 2.54992 8.13117
rfingers 7.12502
rthumb 28.0304 -19.7952
lclavicle -3.37934e-014 2.8625e-014
lhumerus -31.3089 33.7669 65.1467
lradius 16.7427
lwrist -38.462
lhand -9.63114 -8.18579
lfingers 7.12502
lthumb 16.3388 21.1459
rfemur 12.0869 14.5967 23.2403
rtibia 12.2497
rfoot -31.3214 -32.3002
rtoes -8.54504
lfemur -2.04992 -19.9535 -18.808
ltibia 27.152
lfoot -20.4471 3.27396
ltoes -15.9194
179
root 2.4682 17.649 17.642 -4.07787 22.2229 0.84628
lowerback 7.1106 4.60988 4.31299
upperback 0.714708 6.34604 -7.84072
thorax -1.84914 3.19899 -11.3034
lowerneck 4.06442 -8.72263 -5.20514
upperneck 9.71145 -12.1601 5.69595
head 3.20755 -6.08284 2.52533
rclavicle 5.9039e-014 -3.18055e-015
rhumerus 64.9226 -28.3462 -85.1155
rradius 8.16807
rwrist 64.519
rhand 2.33723 8.00828
rfingers 7.12502
rthumb 27.8271 -19.9512
lclavicle 5.9039e-014 -3.18055e-015
lhumerus -31.3202 33.9904 65.1089
lradius 16.7016
lwrist -38.6766
lhand -9.6634 -8.16572
lfingers 7.12502
lthumb 16.3078 21.1686
rfemur 12.0784 14.6113 23.2219
rtibia 12.26
rfoot -31.3054 -32.291
rtoes -8.55087
lfemur -2.04187 -19.9464 -18.8281
ltibia 27.1515
lfoot -20.4433 3.29499
ltoes -15.9193
180
root 2.46741 17.6488 17.6408 -4.07877 22.181 0.845186
lowerback 7.09684 4.61573 4.28385
upperback 0.702005 6.35081 -7.82994
thorax -1.85833 3.20036 -11.2735
lowerneck 4.10576 -8.72547 -5.16157
upperneck 9.7008 -12.1614 5.66635
head 3.19062 -6.08341 2.51009
rclavicle 5.52621e-014 -9.22361e-014
rhumerus 64.9045 -28.3268 -85.1727
rradius 8.15198
rwrist 64.4386
rhand 2.00179 7.93855
rfingers 7.12502
rthumb 27.5063 -20.0724
lclavicle 5.52621e-014 -9.22361e-014
lhumerus -31.3291 33.9674 65.1232
lradius 16.6934
lwrist -38.7334
lhand -9.64795 -8.11354
lfingers 7.12502
lthumb 16.3226 21.2195
rfemur 12.0665 14.6778 23.236
rtibia 12.2713
rfoot -31.32 -32.3105
rtoes -8.53387
lfemur -2.03949 -19.9246 -18.8252
ltibia 27.153
lfoot -20.4461 3.31308
ltoes -15.9191
181
root 2.46753 17.6488 17.6396 -4.07867 22.162 0.845437
lowerback 7.04734 4.60234 4.23592
upperback 0.724837 6.32959 -7.7986
thorax -1.82051 3.19191 -11.2017
lowerneck 4.07654 -8.71939 -5.16996
upperneck 9.67488 -12.1507 5.65418
head 3.18579 -6.07846 2.50687
rclavicle -2.48481e-014 8.90555e-014
rhumerus 64.9797 -28.2578 -85.242
rradius 8.1186
rwrist 64.2983
rhand 1.63211 7.79381
rfingers 7.12502
rthumb 27.1527 -20.2728
lclavicle -2.48481e-014 8.90555e-014
lhumerus -31.3216 34.0744 65.1264
lradius 16.6576
lwrist -38.8324
lhand -9.67421 -8.10573
lfingers 7.12502
lthumb 16.2974 21.2294
rfemur 12.0461 14.6818 23.229
rtibia 12.2937
rfoot -31.3161 -32.3225
rtoes -8.5829
lfemur -2.03873 -19.921 -18.8282
ltibia 27.1522
lfoot -20.4447 3.32851
ltoes -15.9189
182
root 2.46825 17.6491 17.6379 -4.06977 22.1332 0.846741
lowerback 7.01578 4.58576 4.21002
upperback 0.714172 6.3044 -7.78889
thorax -1.82377 3.1784 -11.1716
lowerneck 4.06645 -8.70732 -5.1393
upperneck 9.67892 -12.1307 5.61509
head 3.18206 -6.06819 2.4887
rclavicle 7.0171e-014 -2.38542e-014
rhumerus 65.0062 -28.1916 -85.3254
rradius 8.08998
rwrist 64.169
rhand 1.27432 7.6997
rfingers 7.12502
rthumb 26.8104 -20.4199
lclavicle 7.0171e-014 -2.38542e-014
lhumerus -31.3619 34.216 65.0496
lradius 16.6023
lwrist -39.009
lhand -9.68246 -8.09247
lfingers 7.12502
lthumb 16.2894 21.2433
rfemur 12.0115 14.6734 23.2084
rtibia 12.3178
rfoot -31.2887 -32.2901
rtoes -8.59944
lfemur -2.04503 -19.9213 -18.8349
ltibia 27.1532
lfoot -20.4449 3.35919
ltoes -15.9187
183
root 2.46836 17.6493 17.6358 -4.0712 22.0863 0.846445
lowerback 6.98544 4.58922 4.17734
upperback 0.721802 6.30657 -7.76767
thorax -1.8045 3.18045 -11.1246
lowerneck 4.02263 -8.70874 -5.16807
upperneck 9.70238 -12.1327 5.61284
head 3.2003 -6.06938 2.49029
rclavicle 1.4223e-013 -2.22639e-014
rhumerus 65.042 -28.1891 -85.3661
rradius 8.08802
rwrist 63.9386
rhand 0.95733 7.66919
rfingers 7.12502
rthumb 26.507 -20.4966
lclavicle 1.4223e-013 -2.22639e-014
lhumerus -31.3685 34.363 65.0231
lradius 16.5718
lwrist -39.1776
lhand -9.66084 -8.16079
lfingers 7.12502
lthumb 16.3102 21.1733
rfemur 11.9825 14.723 23.2099
rtibia 12.3523
rfoot -31.3123 -32.2859
rtoes -8.56444
lfemur -2.03965 -19.9042 -18.8387
ltibia 27.1511
lfoot -20.4443 3.38856
ltoes -15.9183
184
root 2.46854 17.6495 17.6329 -4.07428 22.0416 0.843898
lowerback 6.96854 4.5769 4.14781
upperback 0.722108 6.28739 -7.74845
thorax -1.80453 3.17044 -11.0828
lowerneck 4.01499 -8.69223 -5.15324
upperneck 9.6795 -12.1074 5.58909
head 3.18891 -6.05692 2.48074
rclavicle 1.76421e-013 -1.59028e-015
rhumerus 65.0912 -28.1277 -85.441
rradius 8.07051
rwrist 63.635
rhand 0.622628 7.53055
rfingers 7.12502
rthumb 26.1866 -20.6832
lclavicle 1.76421e-013 -1.59028e-015
lhumerus -31.368 34.3444 65.0473
lradius 16.5666
lwrist -39.197
lhand -9.66881 -8.12986
lfingers 7.12502
lthumb 16.3026 21.2049
rfemur 11.9432 14.6925 23.186
rtibia 12.3848
rfoot -31.255 -32.2266
rtoes -8.5925
lfemur -2.03586 -19.8857 -18.839
ltibia 27.1491
lfoot -20.4419 3.41379
ltoes -15.918
185
root 2.4685 17.6501 17.6303 -4.07535 21.9702 0.843629
lowerback 6.94122 4.5793 4.09649
upperback 0.719068 6.28614 -7.7199
thorax -1.80183 3.16946 -11.0176
lowerneck 4.03328 -8.68934 -5.11667
upperneck 9.65624 -12.0978 5.53269
head 3.16941 -6.05271 2.45726
rclavicle 4.34344e-014 5.56597e-014
rhumerus 65.139 -28.0922 -85.4833
rradius 8.0398
rwrist 63.2597
rhand 0.242352 7.46571
rfingers 7.12502
rthumb 25.8225 -20.8015
lclavicle 4.34344e-014 5.56597e-014
lhumerus -31.4013 34.5214 64.9958
lradius 16.5132
lwrist -39.3808
lhand -9.63957 -8.12666
lfingers 7.12502
lthumb 16.3307 21.2057
rfemur 11.9012 14.7461 23.1812
rtibia 12.4271
rfoot -31.2386 -32.2128
rtoes -8.60172
lfemur -2.02075 -19.8846 -18.8584
ltibia 27.1438
lfoot -20.4386 3.5134
ltoes -16.0161
